name Run_30002_IK.mot
datacolumns 164
datarows 4
range 1.78 1.81
endheader
time	         pelvis_tilt	         pelvis_list	     pelvis_rotation	           pelvis_tx	           pelvis_ty	           pelvis_tz	       hip_flexion_r	     hip_adduction_r	      hip_rotation_r	        knee_angle_r	       ankle_angle_r	       hip_flexion_l	     hip_adduction_l	      hip_rotation_l	        knee_angle_l	       ankle_angle_l	    lumbar_extension	      lumbar_bending	     lumbar_rotation	          arm_flex_r	           arm_add_r	           arm_rot_r	        elbow_flex_r	           pro_sup_r	          arm_flex_l	           arm_add_l	           arm_rot_l	        elbow_flex_l	           pro_sup_l	    subtalar_angle_r	         mtp_angle_r	    subtalar_angle_l	         mtp_angle_l	        wrist_flex_r	         wrist_dev_r	        wrist_flex_l	         wrist_dev_l	             LASI_tx	             LASI_ty	             LASI_tz	             RASI_tx	             RASI_ty	             RASI_tz	             LPSI_tx	             LPSI_ty	             LPSI_tz	             RPSI_tx	             RPSI_ty	             RPSI_tz	             RTH1_tx	             RTH1_ty	             RTH1_tz	             RTH2_tx	             RTH2_ty	             RTH2_tz	             RTH3_tx	             RTH3_ty	             RTH3_tz	             LTH1_tx	             LTH1_ty	             LTH1_tz	             LTH2_tx	             LTH2_ty	             LTH2_tz	             LTH3_tx	             LTH3_ty	             LTH3_tz	             RTB1_tx	             RTB1_ty	             RTB1_tz	             RTB2_tx	             RTB2_ty	             RTB2_tz	             RTB3_tx	             RTB3_ty	             RTB3_tz	             LTB1_tx	             LTB1_ty	             LTB1_tz	             LTB2_tx	             LTB2_ty	             LTB2_tz	             LTB3_tx	             LTB3_ty	             LTB3_tz	             RCAL_tx	             RCAL_ty	             RCAL_tz	             RTOE_tx	             RTOE_ty	             RTOE_tz	             RMT5_tx	             RMT5_ty	             RMT5_tz	             LCAL_tx	             LCAL_ty	             LCAL_tz	             LTOE_tx	             LTOE_ty	             LTOE_tz	             LMT5_tx	             LMT5_ty	             LMT5_tz	             LACR_tx	             LACR_ty	             LACR_tz	             RACR_tx	             RACR_ty	             RACR_tz	             CLAV_tx	             CLAV_ty	             CLAV_tz	               C7_tx	               C7_ty	               C7_tz	             RUA1_tx	             RUA1_ty	             RUA1_tz	             RUA2_tx	             RUA2_ty	             RUA2_tz	             RUA3_tx	             RUA3_ty	             RUA3_tz	             RLEL_tx	             RLEL_ty	             RLEL_tz	             RMEL_tx	             RMEL_ty	             RMEL_tz	             LUA1_tx	             LUA1_ty	             LUA1_tz	             LUA2_tx	             LUA2_ty	             LUA2_tz	             LUA3_tx	             LUA3_ty	             LUA3_tz	             LLEL_tx	             LLEL_ty	             LLEL_tz	             LMEL_tx	             LMEL_ty	             LMEL_tz	      RFAsuperior_tx	      RFAsuperior_ty	      RFAsuperior_tz	        RFAradius_tx	        RFAradius_ty	        RFAradius_tz	          RFAulna_tx	          RFAulna_ty	          RFAulna_tz	      LFAsuperior_tx	      LFAsuperior_ty	      LFAsuperior_tz	        LFAradius_tx	        LFAradius_ty	        LFAradius_tz	          LFAulna_tx	          LFAulna_ty	          LFAulna_tz	
1.78	        -14.55036263	          3.35871549	          1.23175211	          0.98354558	          1.00165179	         -0.35442775	         46.61728134	         -3.96754166	          3.38969821	        -84.60814651	          6.77260585	         12.87454439	         10.40783203	         -0.56179846	        -25.70739988	         13.67700407	          2.89937561	         -4.11533000	         -7.45875773	        -36.73539720	        -21.33921422	         -6.88367021	         94.18852172	        107.86162625	        -24.62795759	        -11.15533193	        -12.45739485	        116.16946337	        100.27459333	          0.00000000	          0.00000000	          0.00000000	          0.00000000	          0.00000000	          0.00000000	          0.00000000	          0.00000000	          0.99969682	          1.03818921	         -0.47233071	          1.00307857	          1.04104190	         -0.22900544	          0.84609168	          1.11109481	         -0.41051014	          0.84295275	          1.10217139	         -0.29677695	          0.94931210	          0.92923332	         -0.18047654	          0.95711405	          0.78097470	         -0.19809914	          1.07115066	          0.66482289	         -0.19561556	          0.93201555	          0.91570433	         -0.52859622	          0.84445394	          0.76912607	         -0.48023098	          0.88508774	          0.63169400	         -0.47071185	          1.06030958	          0.44309732	         -0.25393919	          0.97288906	          0.47863750	         -0.18797210	          0.89981436	          0.34480758	         -0.25718200	          0.88854608	          0.40189314	         -0.39193737	          0.76437382	          0.33584900	         -0.43251210	          0.76978872	          0.21934796	         -0.36441909	          0.71791290	          0.34783694	         -0.25148792	          0.87600399	          0.16325462	         -0.26831300	          0.82435729	          0.18199283	         -0.17484568	          0.59441017	          0.14206185	         -0.32725885	          0.82113504	          0.07142916	         -0.32020566	          0.76010023	          0.03760912	         -0.41022816	          0.99299200	          1.52421998	         -0.51957507	          0.99046122	          1.51834943	         -0.19234034	          1.05577966	          1.48363444	         -0.32082317	          0.93677547	          1.55120939	         -0.36296446	          0.86124062	          1.44801532	         -0.14074166	          0.88621399	          1.38708501	         -0.09777685	          0.79810597	          1.33644751	         -0.06192913	          0.74847457	          1.29264930	         -0.03458445	          0.74382146	          1.26231897	         -0.11844234	          0.89984928	          1.42011270	         -0.57413901	          0.93178579	          1.34282305	         -0.59387196	          0.86366986	          1.27377775	         -0.61765686	          0.84866820	          1.20870579	         -0.63668320	          0.83209834	          1.18957886	         -0.54759903	          0.81382442	          1.20316230	         -0.02723417	          0.94261468	          1.10069950	         -0.10658417	          0.89924252	          1.07074822	         -0.06256441	          0.92067629	          1.16450595	         -0.62745310	          1.08555466	          1.18634179	         -0.53582481	          1.08388970	          1.12051222	         -0.56442823	
1.79	        -14.65466067	          2.68705644	          0.69739598	          0.98484580	          1.00963903	         -0.35410222	         47.36326489	         -3.13680698	          2.86329571	        -80.55900062	          7.14536274	          9.84137939	          9.40165814	         -0.66673288	        -22.74793970	          9.58904321	          3.37638725	         -3.12813409	         -7.82399176	        -38.48901741	        -21.52257280	         -7.81279632	         96.01121679	        107.81883316	        -25.00544689	        -11.07474042	        -12.16866102	        118.55935339	         99.98342755	          0.00000000	          0.00000000	          0.00000000	          0.00000000	          0.00000000	          0.00000000	          0.00000000	          0.00000000	          1.00177026	          1.04501478	         -0.47289149	          1.00293647	          1.04989096	         -0.22946481	          0.84812425	          1.11863404	         -0.41190266	          0.84385990	          1.11095393	         -0.29824243	          0.94959066	          0.93942967	         -0.17900571	          0.95967752	          0.79082129	         -0.19803483	          1.07562107	          0.67689641	         -0.19620508	          0.93053947	          0.92147651	         -0.52779630	          0.83549974	          0.77913325	         -0.47935638	          0.87005509	          0.64016931	         -0.47117709	          1.07542511	          0.45007181	         -0.25406333	          0.98439274	          0.47935441	         -0.19018411	          0.92259551	          0.33848380	         -0.25823441	          0.86609559	          0.40955315	         -0.39408901	          0.74104314	          0.34557841	         -0.43441121	          0.74638068	          0.22801526	         -0.36773516	          0.74171124	          0.32624762	         -0.25531776	          0.91570881	          0.15631882	         -0.26924569	          0.86122353	          0.17064591	         -0.17654321	          0.57151836	          0.15491193	         -0.33069296	          0.79285349	          0.07014518	         -0.32084693	          0.73043850	          0.03852568	         -0.41058736	          0.99466820	          1.53335671	         -0.51820261	          0.98718457	          1.52695963	         -0.19163657	          1.05433072	          1.49259139	         -0.31892421	          0.93604208	          1.55941222	         -0.36257916	          0.85631513	          1.45937569	         -0.14349750	          0.87940927	          1.39835895	         -0.09867878	          0.78966619	          1.34945866	         -0.06459931	          0.73837593	          1.30655303	         -0.03850666	          0.73570849	          1.27626731	         -0.12286908	          0.90258797	          1.42962239	         -0.57483162	          0.93547965	          1.35234219	         -0.59401759	          0.86817556	          1.28322581	         -0.61960814	          0.85290361	          1.21822610	         -0.63856512	          0.83460125	          1.19926429	         -0.54965126	          0.80362423	          1.21764966	         -0.02980191	          0.93476096	          1.11654643	         -0.10655745	          0.89102061	          1.08585440	         -0.06327339	          0.92568717	          1.17677924	         -0.62708708	          1.08728593	          1.20588769	         -0.53208957	          1.08865816	          1.13959977	         -0.55968484	
1.8	        -14.75415595	          1.92278019	          0.15172596	          0.98619082	          1.01761626	         -0.35353820	         47.79774088	         -2.24214361	          2.11679578	        -76.01802095	          7.40435274	          7.03691330	          8.26323679	         -1.03651263	        -20.04825056	          5.06063826	          3.80760066	         -2.04614298	         -8.01152411	        -40.26807976	        -21.54290027	         -8.88339458	         97.73542210	        107.65860838	        -25.36893330	        -11.12053747	        -11.74391644	        120.85603084	        100.03382494	          0.00000000	          0.00000000	          0.00000000	          0.00000000	          0.00000000	          0.00000000	          0.00000000	          0.00000000	          1.00392146	          1.05181138	         -0.47329887	          1.00295024	          1.05905783	         -0.22942861	          0.85020154	          1.12610863	         -0.41307044	          0.84491099	          1.11980039	         -0.29949419	          0.94929266	          0.94942241	         -0.17709733	          0.96164693	          0.80050653	         -0.19746265	          1.07857845	          0.68817248	         -0.19694753	          0.92913843	          0.92746195	         -0.52704042	          0.82750528	          0.78939659	         -0.47878954	          0.85613954	          0.64918916	         -0.47181596	          1.08918125	          0.45668866	         -0.25450729	          0.99501373	          0.47866892	         -0.19232351	          0.94644479	          0.33207726	         -0.25962321	          0.84530461	          0.41796237	         -0.39716952	          0.71916755	          0.35597854	         -0.43653594	          0.72457836	          0.23742454	         -0.37165348	          0.76725714	          0.30402201	         -0.25988233	          0.95603101	          0.15039898	         -0.27051167	          0.89892766	          0.15993947	         -0.17852397	          0.55067636	          0.16889971	         -0.33448397	          0.76506010	          0.06895668	         -0.32160365	          0.70128780	          0.03998297	         -0.41134288	          0.99613099	          1.54256281	         -0.51681031	          0.98464286	          1.53531301	         -0.19101317	          1.05300664	          1.50132388	         -0.31726702	          0.93526775	          1.56755069	         -0.36196197	          0.85226771	          1.47064335	         -0.14592561	          0.87348495	          1.40934948	         -0.09980486	          0.78198528	          1.36253817	         -0.06755707	          0.72921195	          1.32039095	         -0.04270508	          0.72850701	          1.28990029	         -0.12761586	          0.90511106	          1.43943236	         -0.57551593	          0.93875963	          1.36217518	         -0.59431843	          0.87183445	          1.29319737	         -0.62157479	          0.85660604	          1.22810652	         -0.64061751	          0.83677763	          1.20901214	         -0.55213652	          0.79426519	          1.23184271	         -0.03264150	          0.92759135	          1.13187176	         -0.10659106	          0.88336736	          1.10050325	         -0.06419258	          0.93011143	          1.18919947	         -0.62707350	          1.08796990	          1.22485793	         -0.52853865	          1.09243087	          1.15835688	         -0.55542225	
1.81	        -14.87162451	          1.11630738	         -0.35827534	          0.98753837	          1.02538837	         -0.35284480	         47.93790987	         -1.33695710	          1.17621387	        -71.01162121	          7.57878155	          4.50320496	          7.08921139	         -1.50913042	        -17.67947241	          0.29222672	          4.21443051	         -0.92988440	         -8.09579384	        -42.02980220	        -21.44727440	         -9.97507375	         99.32742258	        107.28245525	        -25.74491464	        -11.27037262	        -11.23207907	        123.04030485	        100.38801867	          0.00000000	          0.00000000	          0.00000000	          0.00000000	          0.00000000	          0.00000000	          0.00000000	          0.00000000	          1.00609377	          1.05835226	         -0.47355048	          1.00323638	          1.06824530	         -0.22899981	          0.85228060	          1.13334924	         -0.41408670	          0.84596692	          1.12860793	         -0.30033775	          0.94837412	          0.95883717	         -0.17507164	          0.96319876	          0.80972478	         -0.19659925	          1.07987139	          0.69839161	         -0.19790792	          0.92795950	          0.93354435	         -0.52645729	          0.82057433	          0.79958308	         -0.47865642	          0.84344957	          0.65846993	         -0.47242162	          1.10163143	          0.46262915	         -0.25513263	          1.00500659	          0.47647145	         -0.19434221	          0.97078881	          0.32577185	         -0.26176514	          0.82609324	          0.42683640	         -0.40057452	          0.69893025	          0.36679122	         -0.43891809	          0.70446091	          0.24719615	         -0.37583220	          0.79446234	          0.28152269	         -0.26493014	          0.99663875	          0.14574647	         -0.27232404	          0.93738539	          0.15020074	         -0.18098075	          0.53185743	          0.18379635	         -0.33873976	          0.73770661	          0.06836177	         -0.32251928	          0.67257688	          0.04209805	         -0.41223491	          0.99744581	          1.55161772	         -0.51531434	          0.98273911	          1.54327930	         -0.19051582	          1.05181600	          1.50959654	         -0.31585435	          0.93449212	          1.57538513	         -0.36125452	          0.84893776	          1.48167800	         -0.14787135	          0.86843078	          1.41993253	         -0.10105093	          0.77516355	          1.37549736	         -0.07067829	          0.72107228	          1.33392720	         -0.04702588	          0.72221936	          1.30309095	         -0.13227266	          0.90731483	          1.44932610	         -0.57609194	          0.94149955	          1.37214352	         -0.59484812	          0.87463195	          1.30346168	         -0.62360407	          0.85979625	          1.23815973	         -0.64274541	          0.83853968	          1.21874799	         -0.55485161	          0.78582870	          1.24549822	         -0.03560630	          0.92110316	          1.14637887	         -0.10671313	          0.87624270	          1.11440264	         -0.06537607	          0.93396931	          1.20167885	         -0.62737553	          1.08775339	          1.24293048	         -0.52521575	          1.09535714	          1.17635743	         -0.55160337	
